<?xml version="1.0" encoding="UTF-8"?>
<svg id="Layer_1" data-name="Layer 1" xmlns="http://www.w3.org/2000/svg" xmlns:xlink="http://www.w3.org/1999/xlink" viewBox="0 0 1000 1000">
  <defs>
    <style>
      .cls-1 {
        fill: url(#linear-gradient);
      }

      .cls-1, .cls-2, .cls-3, .cls-4 {
        stroke-width: 0px;
      }

      .cls-2 {
        fill: #28b2fa;
      }

      .cls-3 {
        fill: url(#linear-gradient-2);
      }

      .cls-4 {
        fill: url(#linear-gradient-3);
      }
    </style>
    <linearGradient id="linear-gradient" x1="379.16" y1="492.24" x2="590.66" y2="704.48" gradientUnits="userSpaceOnUse">
      <stop offset="0" stop-color="#fff"/>
      <stop offset="1" stop-color="#28b2fa"/>
    </linearGradient>
    <linearGradient id="linear-gradient-2" x1="500" y1="652.62" x2="500" y2="333.97" gradientUnits="userSpaceOnUse">
      <stop offset="0" stop-color="#28b2fa"/>
      <stop offset="1" stop-color="#fff"/>
    </linearGradient>
    <linearGradient id="linear-gradient-3" x1="518.05" y1="485.01" x2="673.15" y2="648.19" xlink:href="#linear-gradient"/>
  </defs>
  <path class="cls-1" d="M500,500v165.25c-2.81,0-5.54-.7-8.09-2.2l-129.1-74.49c-5.01-2.9-8.09-8.27-8.09-14.07v-148.98c0-2.9.79-5.72,2.2-8.18l70.44,40.72,72.64,41.95Z"/>
  <path class="cls-2" d="M718.36,492.96l48.55-28.05c5.01-2.81,8.09-8.18,8.09-13.98v-100.34c0-5.8-3.08-11.17-8.09-14.07l-258.82-149.42c-5.01-2.9-11.17-2.9-16.18,0l-258.82,149.42c-5.01,2.9-8.09,8.27-8.09,14.07v100.34c0,5.8,3.08,11.17,8.09,13.98l48.55,28.05c5.36,3.17,5.36,10.9,0,14.07l-48.55,27.97c-5.01,2.9-8.09,8.27-8.09,14.07v100.34c0,5.8,3.08,11.17,8.09,14.07l258.82,149.42c5.01,2.9,11.17,2.9,16.18,0l258.82-149.42c5.01-2.9,8.09-8.27,8.09-14.07v-100.34c0-5.8-3.08-11.17-8.09-14.07l-48.55-27.97c-5.36-3.17-5.36-10.9,0-14.07ZM645.28,574.49c0,5.8-3.08,11.08-8,13.98l-95.16,54.96-34.03,19.61c-2.46,1.49-5.28,2.2-8.09,2.2s-5.54-.7-8.09-2.2l-129.1-74.49c-5.01-2.9-8.09-8.27-8.09-14.07v-148.98c0-2.9.79-5.72,2.2-8.18,1.41-2.37,3.43-4.4,5.89-5.89l129.1-74.49c5.01-2.9,11.17-2.9,16.18,0l34.03,19.61,95.07,54.88c2.46,1.49,4.57,3.52,5.89,5.89,1.41,2.46,2.2,5.28,2.2,8.18v148.98Z"/>
  <path class="cls-3" d="M643.08,417.33l-143.08,82.67-72.64-41.95-70.44-40.72c1.41-2.37,3.43-4.4,5.89-5.89l129.1-74.49c5.01-2.9,11.17-2.9,16.18,0l34.03,19.61,95.07,54.88c2.46,1.49,4.57,3.52,5.89,5.89Z"/>
  <path class="cls-4" d="M645.28,425.51v148.98c0,5.8-3.08,11.08-8,13.98l-95.16,54.96-34.03,19.61c-2.46,1.49-5.28,2.2-8.09,2.2v-165.25l143.08-82.67c1.41,2.46,2.2,5.28,2.2,8.18Z"/>
</svg>